<?xml version="1.0" encoding="utf-8"?>
<!-- Generator: Adobe Illustrator 27.7.0, SVG Export Plug-In . SVG Version: 6.00 Build 0)  -->
<svg version="1.1" id="f2557a61-56ef-4ee7-9811-4cdcc73688e4"
	 xmlns="http://www.w3.org/2000/svg" xmlns:xlink="http://www.w3.org/1999/xlink" x="0px" y="0px" viewBox="0 0 1121.8 699.1"
	 style="enable-background:new 0 0 1121.8 699.1;" xml:space="preserve">
<style type="text/css">
	.st0{fill:#F2F2F2;}
	.st1{fill:#FFABE7;}
	.st2{fill:#3F3D56;}
	.st3{opacity:0.1;enable-background:new    ;}
	.st4{fill:#6C5CE7;}
	.st5{opacity:0.5;fill:#3F3D56;enable-background:new    ;}
	.st6{fill:#2F2E41;}
	.st7{opacity:0.5;fill:#2F2E41;enable-background:new    ;}
	.st8{opacity:0.2;fill:#2F2E41;enable-background:new    ;}
	.st9{fill:#FF6584;}
	.st10{opacity:0.5;fill:#FF6584;enable-background:new    ;}
	.st11{opacity:0.2;fill:#FF6584;enable-background:new    ;}
	.st12{fill:#FFB9B9;}
	.st13{fill:#BB3DD1;}
	.st14{fill:#A0616A;}
	.st15{fill:#A4BEFF;}
</style>
<circle class="st0" cx="852.8" cy="368" r="254"/>
<circle class="st1" cx="137.8" cy="97" r="97"/>
<circle class="st0" cx="311.8" cy="267" r="254"/>
<ellipse class="st2" cx="299.8" cy="520" rx="279" ry="15"/>
<ellipse class="st3" cx="243.8" cy="520.5" rx="209" ry="10.3"/>
<ellipse class="st2" cx="842.8" cy="624.5" rx="279" ry="16.5"/>
<ellipse class="st3" cx="786.8" cy="625.1" rx="209" ry="11.4"/>
<ellipse class="st2" cx="400.9" cy="586" rx="178" ry="9"/>
<ellipse class="st2" cx="85.9" cy="556" rx="85.9" ry="4.3"/>
<ellipse class="st2" cx="952.9" cy="691" rx="159.9" ry="8.1"/>
<rect x="615.8" y="433" class="st2" width="320" height="190"/>
<circle class="st4" cx="718.8" cy="530" r="72"/>
<rect x="812.8" y="463" class="st4" width="24" height="24"/>
<rect x="842.8" y="463" class="st5" width="24" height="24"/>
<rect x="872.8" y="463" class="st2" width="24" height="24"/>
<rect x="812.8" y="493" class="st6" width="24" height="24"/>
<rect x="842.8" y="493" class="st7" width="24" height="24"/>
<rect x="872.8" y="493" class="st8" width="24" height="24"/>
<rect x="812.8" y="523" class="st9" width="24" height="24"/>
<rect x="842.8" y="523" class="st10" width="24" height="24"/>
<rect x="872.8" y="523" class="st11" width="24" height="24"/>
<path class="st5" d="M718.8,458v144c39.8,0,74-32.2,74-72S758.6,458,718.8,458z"/>
<path class="st12" d="M1004.3,446.5c0,0,42,19,27,41s-60,64-61,73s-7,17-7,17s-20-21-18-23s22-21,23-26s31-44,31-44l-27-24
	L1004.3,446.5z"/>
<path class="st3" d="M1004.3,446.5c0,0,42,19,27,41s-60,64-61,73s-7,17-7,17s-20-21-18-23s22-21,23-26s31-44,31-44l-27-24
	L1004.3,446.5z"/>
<path class="st12" d="M951.3,488.5c0,0,29,12,27,31s35,73,35,73s4,13,3,17s26,3,26,3v-9c0,0-21-36-23-46s-14-49-14-49s-4-35-24-35
	C969.5,473.5,958.4,479.1,951.3,488.5z"/>
<path class="st6" d="M952.8,398c0,0,60,49,58,53s-31,19-36,20s-40.4-73-40.4-73H952.8z"/>
<path class="st3" d="M952.8,398c0,0,60,49,58,53s-31,19-36,20s-40.4-73-40.4-73H952.8z"/>
<path class="st6" d="M887.8,408c0,0-6,27,10,38s43,54,46,54s46-23,44-27s-24-39-24-39l-7-37C956.8,397,895.8,395,887.8,408z"/>
<path class="st12" d="M952.8,320l9,58l16,41c0,0,24,25,10,27s-22-27-22-27l-13-24L952.8,320z"/>
<path class="st3" d="M952.8,320l9,58l16,41c0,0,24,25,10,27s-22-27-22-27l-13-24L952.8,320z"/>
<path class="st12" d="M919.3,255.5c0,0,0,21-7,23s28,29,28,29s-4-35,10-44L919.3,255.5z"/>
<path class="st3" d="M919.3,255.5c0,0,0,21-7,23s28,29,28,29s-4-35,10-44L919.3,255.5z"/>
<circle class="st12" cx="935.3" cy="249.5" r="23"/>
<path class="st4" d="M936.3,297.5c0,0-21-26-24-25s-25,23-27,30s-6,57-3,67s3,36,2,38s-7,7-1,7s27-15,41-12s33-1,34-3s-1-54,0-58
	s-2-24-3-28s-1-20-11-24l-4.3-0.4l-0.2,9.9L936.3,297.5z"/>
<path class="st12" d="M892.3,349.5c0,0,2,31,17,44s47,35,49,39s21,25,25,16c1.2-2.8,1.4-5.9,0.8-8.9c-1.2-6-4.8-11.2-9.9-14.4
	l-8.9-5.7l-44-46l-2-24H892.3z"/>
<path class="st6" d="M949.8,551c0,0-11.5-2.5-15.5,4.5s4,26,4,26s23,48,27,42s-3-28-3-28s10-22,6-23S949.8,563,949.8,551z"/>
<path class="st6" d="M1020.3,608.5c0,0-6-3-7,0s-7,18,0,20s76,4,74,0s-13-9-20-11s-25-17-25-17S1032.3,613.5,1020.3,608.5z"/>
<path class="st6" d="M958.5,231.2c-0.4-1.5-1.4-2.7-2.7-3.5c0.1-1.6-0.1-3.1-0.6-4.6c-1.5-4.3-5-4.1-8.2-6c-1.4-0.8-1.3-1.6-2.1-2.9
	c-1-1.8-2.4-3.3-4.2-4.3c-2.1-1.3-4.3-2.7-6.8-2.9c-5.2-0.4-9.3,4.6-14.3,6.2c-2.2,0.7-4.6,0.7-6.8,1.4s-4.4,2.2-4.8,4.5
	c-0.2,1.1,0.1,2.1,0,3.2c-0.3,2.1-2.2,3.6-3.4,5.3c-2.7,3.8-2.4,9.2-0.2,13.4c0.5,0.9,1,1.7,1.6,2.5c0.2,2,0.7,3.9,1.7,5.6
	c2.2,4.2,5.9,7.3,9.9,9.8c-0.3-1.4-0.5-2.8-0.6-4.2c-0.1-0.5,0-0.9,0.2-1.4c0.4-0.9,1.6-1.2,2.5-1.7c1.8-1,2.5-3.3,2.6-5.4
	s-0.4-4.2-0.2-6.3c0-1,0.4-1.9,1.2-2.5c0.7-0.4,1.4-0.6,2.2-0.5c3.7-0.2,7.6-0.2,10.9-2c1.1-0.7,2.2-1.3,3.4-1.7
	c2.8-0.7,5.7,1.2,7.3,3.6s2.4,5.3,3.9,7.7s4.1,4.7,6.9,4.4c0.3,0,0.6-0.1,0.9-0.4c0.1-0.2,0.2-0.5,0.2-0.7l0.2-11
	C959.2,235,959,233.1,958.5,231.2z"/>
<path class="st4" d="M901.3,298.5c0,0,22,10,21,31s6,23-11,25s-21,0-22,2s-7-46-3-51S901.3,298.5,901.3,298.5z"/>
<circle class="st6" cx="458.8" cy="97" r="32"/>
<path class="st6" d="M480.3,447.5l-18,49c0,0-15,12-6,16s27-4,27-4l14-36l-2-25H480.3z"/>
<path class="st3" d="M480.3,447.5l-18,49c0,0-15,12-6,16s27-4,27-4l14-36l-2-25H480.3z"/>
<path class="st13" d="M481.8,157l15,2c0,0,7,55,4,59s-18,20-24,16S481.8,157,481.8,157z"/>
<path class="st14" d="M338.3,257.5c0,0-21,9-25,10s-10,11-3,13s34-18,34-18L338.3,257.5z"/>
<path class="st6" d="M487.3,467.5l11,41c0,0,1,15,6,16s20-5,20-7s-6-18-6-18s0-12-6-17s-11.4-21.7-11.4-21.7L487.3,467.5z"/>
<path class="st6" d="M501.3,373.5c2,4.7,1.8,38.9-0.4,61.6c-1.1,11-2.6,19.4-4.6,20.4l-14.3-3.6l-5.7-1.4l-0.2-12.4l-0.8-68.6
	l-17-71v-18l43,4l6.8,10.7l0.2,0.3C508.3,295.5,498.3,366.5,501.3,373.5z"/>
<path class="st3" d="M492.3,395.5c2.1,3.2,5.7,22.4,8.6,39.6c-1.1,11-2.6,19.4-4.6,20.4l-14.3-3.6c-0.2-0.5-0.4-0.9-0.7-1.4
	c-1.8-3.8-3.5-8.1-5.2-12.4l-0.8-68.6l-17-71v-18l43,4l6.8,10.7l-39.8-2.7l9,39l11,41C488.3,372.5,488.3,389.5,492.3,395.5z"/>
<path class="st6" d="M421.3,240.5c0,0-14,31,6,74c12.4,26.8,23.4,54.1,33,82c0,0,7,33,17,54s8,22,8,22l16-9c0,0-9-62-13-68
	s-4-23-4-23l-11-41l-9-39l44,3c0,0,0-57-20-68L421.3,240.5z"/>
<path class="st14" d="M437.8,112c0,0,0,16-5,17s-15,1-18,6s23,71,23,71l27-17l9-45c0,0-13-8-13-12v-18L437.8,112z"/>
<path class="st3" d="M437.8,112c0,0,0,16-5,17s-15,1-18,6s23,71,23,71l27-17l9-45c0,0-13-8-13-12v-18L437.8,112z"/>
<circle class="st14" cx="453.3" cy="105.5" r="24"/>
<path class="st13" d="M440.8,186c0,0-9-57-11-57s-30,6-32,7s-9,10-9,10l14,40c0,0,6,28,10,33s12,19,8,21s-8,5-4,5s37-6,39-3
	s35-11,35-12s-4-48-4-48l10-23l-30-21L440.8,186z"/>
<path class="st13" d="M398.8,141l-10,5c0,0-28,64-30,65s-12,20-13,24s-3,17-6,19c-1.6,1.1-3.3,2.1-5,3c0,0,6,10,9,10s13-14,13-14
	s22,14,28,3c6-11,21-81,21-81L398.8,141z"/>
<path class="st14" d="M477.3,171.5c0,0-14-34-22-30s6,28,15,32L477.3,171.5z"/>
<path class="st3" d="M463.3,172.5l14-3.2l3,15.2c0,0,13,23,10,33s-21,26-27,17s-11-23-7-31S466.3,176.5,463.3,172.5z"/>
<path class="st13" d="M466.3,170.5l14-3.2l3,15.2c0,0,13,23,10,33s-21,26-27,17s-11-23-7-31S469.3,174.5,466.3,170.5z"/>
<ellipse transform="matrix(0.4242 -0.9056 0.9056 0.4242 182.7939 468.4896)" class="st6" cx="459.8" cy="90.5" rx="11.5" ry="24"/>
<circle class="st6" cx="477.8" cy="70" r="14"/>
<path class="st6" d="M464.8,65c0-7.2,5.4-13.2,12.5-13.9c-7.7-0.8-14.6,4.7-15.4,12.4c-0.8,7.7,4.7,14.6,12.4,15.4c1,0.1,2,0.1,3,0
	C470.2,78.2,464.8,72.2,464.8,65z"/>
<rect x="64.8" y="277" class="st2" width="350" height="243"/>
<rect x="92.8" y="301" class="st0" width="46" height="46"/>
<rect x="92.8" y="376" class="st4" width="46" height="46"/>
<rect x="92.8" y="451" class="st0" width="46" height="46"/>
<rect x="160.8" y="315.5" class="st0" width="219" height="4"/>
<rect x="160.8" y="328.5" class="st0" width="68" height="4"/>
<rect x="160.8" y="390.5" class="st0" width="219" height="4"/>
<rect x="160.8" y="403.5" class="st0" width="68" height="4"/>
<rect x="160.8" y="465.5" class="st0" width="219" height="4"/>
<rect x="160.8" y="478.5" class="st0" width="68" height="4"/>
<path class="st15" d="M989.8,668.9c0,20.4-12.1,27.5-27,27.5c-0.3,0-0.7,0-1,0c-0.7,0-1.4,0-2.1-0.1c-13.5-1-23.9-8.4-23.9-27.4
	c0-19.6,25-44.3,26.9-46.1l0,0c0.1-0.1,0.1-0.1,0.1-0.1S989.8,648.6,989.8,668.9z"/>
<path class="st2" d="M961.8,693.3l9.9-13.8l-9.9,15.3l0,1.6c-0.7,0-1.4,0-2.1-0.1l1.1-20.4l0-0.2l0,0l0.1-1.9l-9.9-15.4l10,13.9
	l0,0.4l0.8-15.4l-8.5-15.9l8.6,13.2l0.8-31.9l0-0.1v0.1l-0.1,25.2l8.5-10l-8.5,12.1l-0.2,13.8l7.9-13.2l-7.9,15.2l-0.1,7.7
	l11.5-18.4l-11.5,21.1L961.8,693.3z"/>
<path class="st4" d="M112.8,529.9c0,20.4-12.1,27.5-27,27.5c-0.3,0-0.7,0-1,0c-0.7,0-1.4,0-2.1-0.1c-13.5-1-23.9-8.4-23.9-27.4
	c0-19.6,25-44.3,26.9-46.1l0,0c0.1-0.1,0.1-0.1,0.1-0.1S112.8,509.6,112.8,529.9z"/>
<path class="st2" d="M84.8,554.3l9.9-13.8l-9.9,15.3l0,1.6c-0.7,0-1.4,0-2.1-0.1l1.1-20.4l0-0.2l0,0l0.1-1.9l-9.9-15.4l10,13.9
	l0,0.4l0.8-15.4l-8.5-15.9l8.6,13.2l0.8-31.9l0-0.1v0.1l-0.1,25.2l8.5-10l-8.5,12.1l-0.2,13.8l7.9-13.2l-7.9,15.2l-0.1,7.7
	l11.5-18.4l-11.5,21.1L84.8,554.3z"/>
</svg>
